<svg width="17" height="16" viewBox="0 0 17 16" fill="none" xmlns="http://www.w3.org/2000/svg">
<g id="bxs:sort-alt">
<path id="Vector" d="M4.37135 7.33356H12.0693C12.644 7.33356 12.9493 6.65356 12.5673 6.22356L8.71868 1.89356C8.65625 1.8231 8.57958 1.76668 8.49374 1.72805C8.40789 1.68941 8.31482 1.66943 8.22068 1.66943C8.12654 1.66943 8.03347 1.68941 7.94763 1.72805C7.86178 1.76668 7.78511 1.8231 7.72268 1.89356L3.87268 6.22356C3.49068 6.65356 3.79601 7.33356 4.37135 7.33356ZM7.72201 14.1062C7.78444 14.1767 7.86111 14.2331 7.94696 14.2717C8.03281 14.3104 8.12587 14.3304 8.22001 14.3304C8.31415 14.3304 8.40722 14.3104 8.49307 14.2717C8.57892 14.2331 8.65559 14.1767 8.71801 14.1062L12.5667 9.77623C12.9493 9.34689 12.644 8.66689 12.0687 8.66689H4.37135C3.79668 8.66689 3.49135 9.34689 3.87335 9.77689L7.72201 14.1062Z" fill="#9E9E9E"/>
</g>
</svg>
