<svg width="54" height="54" viewBox="0 0 54 54" fill="none" xmlns="http://www.w3.org/2000/svg">
<g id="icon-park-outline:attention">
<g id="Group">
<path id="Vector" d="M27 49.5C29.9553 49.5038 32.8822 48.9236 35.6126 47.7926C38.3429 46.6616 40.8228 45.0022 42.9098 42.9098C45.0022 40.8228 46.6616 38.3429 47.7926 35.6126C48.9236 32.8822 49.5038 29.9553 49.5 27C49.5038 24.0447 48.9235 21.1178 47.7925 18.3875C46.6616 15.6572 45.0022 13.1773 42.9098 11.0903C40.8228 8.9978 38.3429 7.33839 35.6126 6.20741C32.8822 5.07644 29.9553 4.49619 27 4.50002C24.0447 4.49625 21.1178 5.07653 18.3875 6.2075C15.6572 7.33847 13.1773 8.99785 11.0903 11.0903C8.99785 13.1773 7.33847 15.6572 6.2075 18.3875C5.07653 21.1178 4.49625 24.0447 4.50002 27C4.49619 29.9553 5.07644 32.8822 6.20741 35.6126C7.33839 38.3429 8.9978 40.8228 11.0903 42.9098C13.1773 45.0022 15.6572 46.6616 18.3875 47.7925C21.1178 48.9235 24.0447 49.5038 27 49.5Z" stroke="#EE0000" stroke-width="4" stroke-linejoin="round"/>
<path id="Vector_2" fill-rule="evenodd" clip-rule="evenodd" d="M27 41.625C27.7459 41.625 28.4613 41.3287 28.9887 40.8012C29.5162 40.2738 29.8125 39.5584 29.8125 38.8125C29.8125 38.0666 29.5162 37.3512 28.9887 36.8238C28.4613 36.2963 27.7459 36 27 36C26.2541 36 25.5387 36.2963 25.0113 36.8238C24.4838 37.3512 24.1875 38.0666 24.1875 38.8125C24.1875 39.5584 24.4838 40.2738 25.0113 40.8012C25.5387 41.3287 26.2541 41.625 27 41.625Z" fill="#EE0000"/>
<path id="Vector_3" d="M27 13.5V31.5" stroke="#EE0000" stroke-width="4" stroke-linecap="round" stroke-linejoin="round"/>
</g>
</g>
</svg>
