<svg width="74" height="74" viewBox="0 0 74 74" fill="none" xmlns="http://www.w3.org/2000/svg">
<g id="ph:piggy-bank">
<path id="Vector" d="M55.5 33.5312C55.5 34.2173 55.2966 34.888 54.9154 35.4584C54.5343 36.0288 53.9925 36.4734 53.3587 36.736C52.7248 36.9985 52.0274 37.0672 51.3545 36.9333C50.6817 36.7995 50.0636 36.4691 49.5785 35.984C49.0934 35.4989 48.763 34.8808 48.6292 34.208C48.4953 33.5351 48.564 32.8376 48.8265 32.2038C49.0891 31.57 49.5337 31.0282 50.1041 30.6471C50.6746 30.2659 51.3452 30.0625 52.0312 30.0625C52.9512 30.0625 53.8335 30.428 54.484 31.0785C55.1345 31.729 55.5 32.6113 55.5 33.5312ZM43.9375 18.5H32.375C31.7617 18.5 31.1735 18.7436 30.7398 19.1773C30.3061 19.611 30.0625 20.1992 30.0625 20.8125C30.0625 21.4258 30.3061 22.014 30.7398 22.4477C31.1735 22.8814 31.7617 23.125 32.375 23.125H43.9375C44.5508 23.125 45.139 22.8814 45.5727 22.4477C46.0064 22.014 46.25 21.4258 46.25 20.8125C46.25 20.1992 46.0064 19.611 45.5727 19.1773C45.139 18.7436 44.5508 18.5 43.9375 18.5ZM71.6875 32.375V41.625C71.6875 43.4649 70.9566 45.2295 69.6556 46.5306C68.3545 47.8316 66.5899 48.5625 64.75 48.5625H64.0678L59.3821 61.6802C59.0613 62.5787 58.4705 63.356 57.6906 63.9056C56.9107 64.4551 55.98 64.7501 55.0259 64.75H51.3491C50.395 64.7501 49.4643 64.4551 48.6844 63.9056C47.9045 63.356 47.3137 62.5787 46.9929 61.6802L46.4379 60.125H29.8746L29.3196 61.6802C28.9988 62.5787 28.408 63.356 27.6281 63.9056C26.8482 64.4551 25.9175 64.7501 24.9634 64.75H21.2866C20.3325 64.7501 19.4018 64.4551 18.6219 63.9056C17.842 63.356 17.2512 62.5787 16.9304 61.6802L13.2969 51.5167C9.84021 47.6045 7.6758 42.7205 7.09937 37.5319C6.35308 37.9239 5.72811 38.5124 5.29201 39.2338C4.85591 39.9552 4.62526 40.782 4.625 41.625C4.625 42.2383 4.38136 42.8265 3.94768 43.2602C3.51401 43.6939 2.92581 43.9375 2.3125 43.9375C1.69919 43.9375 1.11099 43.6939 0.677316 43.2602C0.243638 42.8265 0 42.2383 0 41.625C0.00353344 39.5627 0.696127 37.5608 1.96775 35.9372C3.23937 34.3136 5.01707 33.1616 7.01844 32.6641C7.53504 26.2912 10.4294 20.3456 15.1269 16.0081C19.8243 11.6705 25.9812 9.25812 32.375 9.25H62.4375C63.0508 9.25 63.639 9.49364 64.0727 9.92732C64.5064 10.361 64.75 10.9492 64.75 11.5625C64.75 12.1758 64.5064 12.764 64.0727 13.1977C63.639 13.6314 63.0508 13.875 62.4375 13.875H56.2545C60.0922 16.5676 63.1104 20.2692 64.9755 24.5703C65.0998 24.8594 65.2212 25.1484 65.3368 25.4375C67.0732 25.5849 68.6906 26.3804 69.8672 27.6658C71.0439 28.9512 71.6937 30.6324 71.6875 32.375ZM67.0625 32.375C67.0625 31.7617 66.8189 31.1735 66.3852 30.7398C65.9515 30.3061 65.3633 30.0625 64.75 30.0625H63.692C63.1995 30.063 62.7197 29.9063 62.3225 29.6151C61.9252 29.324 61.6313 28.9136 61.4836 28.4438C60.1587 24.2157 57.5173 20.5218 53.9448 17.9009C50.3723 15.2801 46.0557 13.8695 41.625 13.875H32.375C28.336 13.8748 24.3842 15.0498 21.0014 17.2569C17.6187 19.4639 14.9513 22.6075 13.3244 26.3044C11.6975 30.0013 11.1815 34.0917 11.8392 38.0768C12.497 42.0619 14.3001 45.7695 17.0287 48.7475C17.2373 48.9744 17.3985 49.2408 17.5027 49.5309L21.2866 60.125H24.9634L26.0677 57.0349C26.228 56.5859 26.5232 56.1974 26.9128 55.9226C27.3025 55.6479 27.7675 55.5002 28.2443 55.5H48.0682C48.545 55.5002 49.01 55.6479 49.3997 55.9226C49.7893 56.1974 50.0845 56.5859 50.2448 57.0349L51.3491 60.125H55.0259L60.2609 45.4724C60.4212 45.0234 60.7164 44.6349 61.106 44.3601C61.4957 44.0854 61.9607 43.9377 62.4375 43.9375H64.75C65.3633 43.9375 65.9515 43.6939 66.3852 43.2602C66.8189 42.8265 67.0625 42.2383 67.0625 41.625V32.375Z" fill="white"/>
</g>
</svg>
