<svg width="54" height="54" viewBox="0 0 54 54" fill="none" xmlns="http://www.w3.org/2000/svg">
<g id="iconamoon:delivery">
<path id="Vector" d="M4.5 6.75V4.5C3.90326 4.5 3.33097 4.73705 2.90901 5.15901C2.48705 5.58097 2.25 6.15326 2.25 6.75H4.5ZM29.25 6.75H31.5C31.5 6.15326 31.2629 5.58097 30.841 5.15901C30.419 4.73705 29.8467 4.5 29.25 4.5V6.75ZM29.25 20.25V18C28.6533 18 28.081 18.2371 27.659 18.659C27.2371 19.081 27 19.6533 27 20.25H29.25ZM4.5 9H29.25V4.5H4.5V9ZM27 6.75V42.75H31.5V6.75H27ZM6.75 38.25V6.75H2.25V38.25H6.75ZM29.25 22.5H40.5V18H29.25V22.5ZM47.25 29.25V38.25H51.75V29.25H47.25ZM31.5 42.75V20.25H27V42.75H31.5ZM42.0908 44.3408C41.6688 44.7626 41.0966 44.9995 40.5 44.9995C39.9034 44.9995 39.3312 44.7626 38.9092 44.3408L35.7277 47.5223C36.9936 48.7877 38.7101 49.4986 40.5 49.4986C42.2899 49.4986 44.0064 48.7877 45.2723 47.5223L42.0908 44.3408ZM38.9092 41.1592C39.3312 40.7374 39.9034 40.5005 40.5 40.5005C41.0966 40.5005 41.6688 40.7374 42.0908 41.1592L45.2723 37.9777C44.0064 36.7123 42.2899 36.0014 40.5 36.0014C38.7101 36.0014 36.9936 36.7123 35.7277 37.9777L38.9092 41.1592ZM15.0907 44.3408C14.6688 44.7626 14.0966 44.9995 13.5 44.9995C12.9034 44.9995 12.3312 44.7626 11.9093 44.3408L8.72775 47.5223C9.99356 48.7877 11.7101 49.4986 13.5 49.4986C15.2899 49.4986 17.0064 48.7877 18.2723 47.5223L15.0907 44.3408ZM11.9093 41.1592C12.3312 40.7374 12.9034 40.5005 13.5 40.5005C14.0966 40.5005 14.6688 40.7374 15.0907 41.1592L18.2723 37.9777C17.0064 36.7123 15.2899 36.0014 13.5 36.0014C11.7101 36.0014 9.99356 36.7123 8.72775 37.9777L11.9093 41.1592ZM42.0908 41.1592C42.5318 41.598 42.75 42.1717 42.75 42.75H47.25C47.25 41.0265 46.5908 39.294 45.2723 37.9777L42.0908 41.1592ZM42.75 42.75C42.7507 43.0456 42.6928 43.3383 42.5796 43.6114C42.4664 43.8844 42.3003 44.1323 42.0908 44.3408L45.2723 47.5223C45.8997 46.896 46.3974 46.1522 46.7367 45.3332C47.0761 44.5143 47.2505 43.6365 47.25 42.75H42.75ZM36 40.5H29.25V45H36V40.5ZM38.9092 44.3408C38.6997 44.1323 38.5336 43.8844 38.4204 43.6114C38.3072 43.3383 38.2493 43.0456 38.25 42.75H33.75C33.75 44.4735 34.4092 46.206 35.7277 47.5223L38.9092 44.3408ZM38.25 42.75C38.2488 42.4544 38.3065 42.1615 38.4197 41.8883C38.5329 41.6152 38.6993 41.3674 38.9092 41.1592L35.7277 37.9777C35.1003 38.604 34.6026 39.3478 34.2633 40.1668C33.9239 40.9857 33.7495 41.8635 33.75 42.75H38.25ZM11.9093 44.3408C11.6997 44.1323 11.5335 43.8844 11.4204 43.6114C11.3072 43.3383 11.2493 43.0456 11.25 42.75H6.75C6.75 44.4735 7.40925 46.206 8.72775 47.5223L11.9093 44.3408ZM11.25 42.75C11.2488 42.4544 11.3065 42.1615 11.4197 41.8883C11.5329 41.6152 11.6993 41.3674 11.9093 41.1592L8.72775 37.9777C8.10031 38.604 7.60264 39.3478 7.26325 40.1668C6.92387 40.9857 6.74945 41.8635 6.75 42.75H11.25ZM29.25 40.5H18V45H29.25V40.5ZM15.0907 41.1592C15.5317 41.598 15.75 42.1717 15.75 42.75H20.25C20.25 41.0265 19.5908 39.294 18.2723 37.9777L15.0907 41.1592ZM15.75 42.75C15.7507 43.0456 15.6928 43.3383 15.5796 43.6114C15.4665 43.8844 15.3003 44.1323 15.0907 44.3408L18.2723 47.5223C18.8997 46.896 19.3974 46.1522 19.7367 45.3332C20.0761 44.5143 20.2505 43.6365 20.25 42.75H15.75ZM47.25 38.25C47.25 38.8467 47.0129 39.419 46.591 39.841C46.169 40.2629 45.5967 40.5 45 40.5V45C46.7902 45 48.5071 44.2888 49.773 43.023C51.0388 41.7571 51.75 40.0402 51.75 38.25H47.25ZM40.5 22.5C42.2902 22.5 44.0071 23.2112 45.273 24.477C46.5388 25.7429 47.25 27.4598 47.25 29.25H51.75C51.75 27.7726 51.459 26.3097 50.8936 24.9448C50.3283 23.5799 49.4996 22.3397 48.455 21.295C47.4103 20.2504 46.1701 19.4217 44.8052 18.8564C43.4403 18.291 41.9774 18 40.5 18V22.5ZM2.25 38.25C2.25 40.0402 2.96116 41.7571 4.22703 43.023C5.4929 44.2888 7.20979 45 9 45V40.5C8.40326 40.5 7.83097 40.2629 7.40901 39.841C6.98705 39.419 6.75 38.8467 6.75 38.25H2.25Z" fill="#084442"/>
</g>
</svg>
