<svg width="25" height="24" viewBox="0 0 25 24" fill="none" xmlns="http://www.w3.org/2000/svg">
<g id="edit (1) 2">
<path id="Vector" d="M11.0742 4H4.07422C3.54379 4 3.03508 4.21071 2.66001 4.58579C2.28493 4.96086 2.07422 5.46957 2.07422 6V20C2.07422 20.5304 2.28493 21.0391 2.66001 21.4142C3.03508 21.7893 3.54379 22 4.07422 22H18.0742C18.6047 22 19.1134 21.7893 19.4884 21.4142C19.8635 21.0391 20.0742 20.5304 20.0742 20V13" stroke="#424242" stroke-width="2" stroke-linecap="round" stroke-linejoin="round"/>
<path id="Vector_2" d="M18.5742 2.50023C18.972 2.1024 19.5116 1.87891 20.0742 1.87891C20.6368 1.87891 21.1764 2.1024 21.5742 2.50023C21.972 2.89805 22.1955 3.43762 22.1955 4.00023C22.1955 4.56284 21.972 5.1024 21.5742 5.50023L12.0742 15.0002L8.07422 16.0002L9.07422 12.0002L18.5742 2.50023Z" stroke="#424242" stroke-width="2" stroke-linecap="round" stroke-linejoin="round"/>
</g>
</svg>
