<svg width="20" height="20" viewBox="0 0 20 20" fill="none" xmlns="http://www.w3.org/2000/svg">
<g id="carbon:delivery">
<path id="Vector" d="M2.5 10H10V11.25H2.5V10ZM1.25 6.875H7.5V8.125H1.25V6.875Z" fill="white"/>
<path id="Vector_2" d="M18.699 10.3787L16.824 6.00375C16.7759 5.8913 16.6958 5.79546 16.5937 5.72812C16.4916 5.66079 16.3719 5.62493 16.2496 5.625H14.3746V4.375C14.3746 4.20924 14.3088 4.05027 14.1915 3.93306C14.0743 3.81585 13.9154 3.75 13.7496 3.75H3.7496V5H13.1246V12.8475C12.8398 13.0129 12.5906 13.233 12.3913 13.4952C12.192 13.7573 12.0465 14.0563 11.9634 14.375H8.03585C7.88373 13.7858 7.52196 13.2724 7.01834 12.9309C6.51473 12.5894 5.90386 12.4433 5.30022 12.5199C4.69659 12.5966 4.14164 12.8908 3.7394 13.3474C3.33715 13.8039 3.11523 14.3915 3.11523 15C3.11523 15.6085 3.33715 16.1961 3.7394 16.6526C4.14164 17.1092 4.69659 17.4034 5.30022 17.4801C5.90386 17.5567 6.51473 17.4106 7.01834 17.0691C7.52196 16.7276 7.88373 16.2142 8.03585 15.625H11.9634C12.0993 16.1614 12.4102 16.6371 12.847 16.977C13.2837 17.3168 13.8212 17.5013 14.3746 17.5013C14.928 17.5013 15.4655 17.3168 15.9022 16.977C16.339 16.6371 16.6499 16.1614 16.7858 15.625H18.1246C18.2904 15.625 18.4493 15.5592 18.5665 15.4419C18.6838 15.3247 18.7496 15.1658 18.7496 15V10.625C18.7496 10.5403 18.7324 10.4565 18.699 10.3787ZM5.6246 16.25C5.37737 16.25 5.1357 16.1767 4.93014 16.0393C4.72457 15.902 4.56436 15.7068 4.46975 15.4784C4.37514 15.2499 4.35039 14.9986 4.39862 14.7561C4.44685 14.5137 4.5659 14.2909 4.74072 14.1161C4.91553 13.9413 5.13826 13.8222 5.38074 13.774C5.62321 13.7258 5.87455 13.7505 6.10295 13.8451C6.33136 13.9398 6.52658 14.1 6.66394 14.3055C6.80129 14.5111 6.8746 14.7528 6.8746 15C6.87427 15.3314 6.74247 15.6492 6.50812 15.8835C6.27377 16.1179 5.95602 16.2497 5.6246 16.25ZM14.3746 6.875H15.8371L17.1771 10H14.3746V6.875ZM14.3746 16.25C14.1274 16.25 13.8857 16.1767 13.6801 16.0393C13.4746 15.902 13.3144 15.7068 13.2198 15.4784C13.1251 15.2499 13.1004 14.9986 13.1486 14.7561C13.1968 14.5137 13.3159 14.2909 13.4907 14.1161C13.6655 13.9413 13.8883 13.8222 14.1307 13.774C14.3732 13.7258 14.6245 13.7505 14.853 13.8451C15.0814 13.9398 15.2766 14.1 15.4139 14.3055C15.5513 14.5111 15.6246 14.7528 15.6246 15C15.6243 15.3314 15.4925 15.6492 15.2581 15.8835C15.0238 16.1179 14.706 16.2497 14.3746 16.25ZM17.4996 14.375H16.7858C16.6482 13.8396 16.3367 13.3651 15.9004 13.0258C15.464 12.6865 14.9274 12.5015 14.3746 12.5V11.25H17.4996V14.375Z" fill="white"/>
</g>
</svg>
