<svg width="12" height="15" viewBox="0 0 12 15" fill="none" xmlns="http://www.w3.org/2000/svg">
<path id="Vector" d="M6 15C4.2625 14.5625 2.828 13.5655 1.6965 12.009C0.565 10.4525 -0.000499669 8.7245 3.31272e-07 6.825V2.25L6 0L12 2.25V6.825C12 8.725 11.4345 10.4532 10.3035 12.0098C9.1725 13.5663 7.738 14.563 6 15ZM6 13.425C7.2125 13.05 8.225 12.3092 9.0375 11.2028C9.85 10.0963 10.325 8.862 10.4625 7.5H6V1.59375L1.5 3.28125V7.1625C1.5 7.25 1.5125 7.3625 1.5375 7.5H6V13.425Z" fill="white"/>
</svg>
