<svg width="24" height="24" viewBox="0 0 24 24" fill="none" xmlns="http://www.w3.org/2000/svg">
<g id="mingcute:card-pay-line" clip-path="url(#clip0_2760_3250)">
<g id="Group 133942">
<g id="Group">
<path id="Vector" fill-rule="evenodd" clip-rule="evenodd" d="M18.15 4C18.8769 3.99996 19.5764 4.27405 20.1053 4.7662C20.6343 5.25835 20.9526 5.93135 20.9953 6.6475L21 6.8125V16.1875C21 16.9049 20.7223 17.5952 20.2236 18.1171C19.7249 18.6391 19.0429 18.9532 18.3172 18.9953L18.15 19H4.85C4.12305 19 3.42356 18.7259 2.89465 18.2338C2.36574 17.7416 2.0474 17.0687 2.00475 16.3525L2 16.1875V6.8125C1.99996 6.09511 2.27771 5.40483 2.77642 4.88288C3.27513 4.36093 3.9571 4.04677 4.6828 4.00469L4.85 4H18.15ZM19.1 9.625H3.9V16.1875C3.90003 16.4171 3.98546 16.6388 4.14008 16.8103C4.2947 16.9819 4.50776 17.0916 4.73885 17.1184L4.85 17.125H18.15C18.3827 17.125 18.6073 17.0407 18.7812 16.8881C18.955 16.7355 19.0661 16.5252 19.0933 16.2972L19.1 16.1875V9.625ZM14.0716 10.9975L15.8082 12.7122C15.9863 12.888 16.0864 13.1264 16.0864 13.375C16.0864 13.6236 15.9863 13.862 15.8082 14.0378L14.0716 15.7516C13.984 15.8411 13.8792 15.9125 13.7633 15.9617C13.6474 16.0108 13.5227 16.0367 13.3966 16.0377C13.2704 16.0388 13.1453 16.0151 13.0286 15.968C12.9118 15.9208 12.8058 15.8512 12.7166 15.7632C12.6274 15.6752 12.5568 15.5705 12.5091 15.4553C12.4613 15.3401 12.4373 15.2166 12.4384 15.0921C12.4395 14.9676 12.4657 14.8446 12.5155 14.7302C12.5652 14.6159 12.6376 14.5124 12.7283 14.4259L12.8424 14.3125H8.65C8.39804 14.3125 8.15641 14.2137 7.97825 14.0379C7.80009 13.8621 7.7 13.6236 7.7 13.375C7.7 13.1264 7.80009 12.8879 7.97825 12.7121C8.15641 12.5363 8.39804 12.4375 8.65 12.4375H12.8433L12.7283 12.3241C12.5501 12.1483 12.4499 11.9098 12.4498 11.6611C12.4497 11.4124 12.5497 11.1739 12.7279 10.998C12.906 10.8221 13.1477 10.7232 13.3997 10.7231C13.6517 10.723 13.8934 10.8217 14.0716 10.9975ZM18.15 5.875H4.85C4.59804 5.875 4.35641 5.97377 4.17825 6.14959C4.00009 6.3254 3.9 6.56386 3.9 6.8125V7.75H19.1V6.8125C19.1 6.56386 18.9999 6.3254 18.8218 6.14959C18.6436 5.97377 18.402 5.875 18.15 5.875Z" fill="white"/>
</g>
</g>
</g>
<defs>
<clipPath id="clip0_2760_3250">
<rect width="24" height="24" fill="white"/>
</clipPath>
</defs>
</svg>
