<svg width="18" height="18" viewBox="0 0 18 18" fill="none" xmlns="http://www.w3.org/2000/svg">
<g id="pajamas:notifications">
<path id="Vector" fill-rule="evenodd" clip-rule="evenodd" d="M9.00121 1C8.70284 1 8.4167 1.11853 8.20572 1.3295C7.99474 1.54048 7.87621 1.82663 7.87621 2.125V2.2375C6.60587 2.49724 5.4642 3.18771 4.64425 4.19215C3.8243 5.19659 3.37637 6.45338 3.37621 7.75V12.25L2.02059 13.744C1.36471 14.4674 1.87771 15.625 2.85309 15.625H7.05271C7.2502 15.967 7.53423 16.251 7.87626 16.4485C8.21829 16.6459 8.60627 16.7499 9.00121 16.7499C9.39615 16.7499 9.78413 16.6459 10.1262 16.4485C10.4682 16.251 10.7522 15.967 10.9497 15.625H15.1493C16.1247 15.625 16.6377 14.4663 15.9818 13.744L14.6262 12.25V7.75C14.6261 6.45338 14.1781 5.19659 13.3582 4.19215C12.5382 3.18771 11.3966 2.49724 10.1262 2.2375V2.125C10.1262 1.82663 10.0077 1.54048 9.79671 1.3295C9.58573 1.11853 9.29958 1 9.00121 1ZM5.06371 12.9025L4.62496 13.384L4.12321 13.9375H13.8792L13.3763 13.384L12.9387 12.9014V7.75C12.9387 7.23292 12.8369 6.7209 12.639 6.24318C12.4411 5.76546 12.1511 5.3314 11.7854 4.96577C11.4198 4.60014 10.9857 4.3101 10.508 4.11222C10.0303 3.91435 9.51829 3.8125 9.00121 3.8125C8.48413 3.8125 7.97212 3.91435 7.4944 4.11222C7.01668 4.3101 6.58261 4.60014 6.21698 4.96577C5.85135 5.3314 5.56131 5.76546 5.36344 6.24318C5.16556 6.7209 5.06371 7.23292 5.06371 7.75V12.9025Z" fill="white"/>
</g>
</svg>
