<svg width="18" height="16" viewBox="0 0 18 16" fill="none" xmlns="http://www.w3.org/2000/svg">
<path id="Vector" d="M18 8.00136C18 8.27804 17.8862 8.54338 17.6837 8.73901C17.4812 8.93465 17.2066 9.04456 16.9202 9.04456H9.00139C8.715 9.04456 8.44034 8.93465 8.23783 8.73901C8.03532 8.54338 7.92155 8.27804 7.92155 8.00136C7.92155 7.72469 8.03532 7.45935 8.23783 7.26371C8.44034 7.06808 8.715 6.95817 9.00139 6.95817H16.9202C17.2066 6.95817 17.4812 7.06808 17.6837 7.26371C17.8862 7.45935 18 7.72469 18 8.00136ZM9.00139 3.48086H16.9202C17.2066 3.48086 17.4812 3.37095 17.6837 3.17531C17.8862 2.97968 18 2.71434 18 2.43767C18 2.16099 17.8862 1.89565 17.6837 1.70002C17.4812 1.50438 17.2066 1.39447 16.9202 1.39447H9.00139C8.715 1.39447 8.44034 1.50438 8.23783 1.70002C8.03532 1.89565 7.92155 2.16099 7.92155 2.43767C7.92155 2.71434 8.03532 2.97968 8.23783 3.17531C8.44034 3.37095 8.715 3.48086 9.00139 3.48086ZM16.9202 12.5219H9.00139C8.715 12.5219 8.44034 12.6318 8.23783 12.8274C8.03532 13.023 7.92155 13.2884 7.92155 13.5651C7.92155 13.8417 8.03532 14.1071 8.23783 14.3027C8.44034 14.4983 8.715 14.6083 9.00139 14.6083H16.9202C17.2066 14.6083 17.4812 14.4983 17.6837 14.3027C17.8862 14.1071 18 13.8417 18 13.5651C18 13.2884 17.8862 13.023 17.6837 12.8274C17.4812 12.6318 17.2066 12.5219 16.9202 12.5219ZM4.63796 0.308682L2.52238 2.35073L1.84659 1.697C1.64373 1.50102 1.36859 1.39092 1.08171 1.39092C0.79482 1.39092 0.519684 1.50102 0.316824 1.697C0.113965 1.89297 0 2.15877 0 2.43593C0 2.71308 0.113965 2.97888 0.316824 3.17486L1.7566 4.56578C1.85692 4.66303 1.97613 4.7402 2.10738 4.79285C2.23864 4.8455 2.37936 4.87261 2.52148 4.87261C2.66361 4.87261 2.80433 4.8455 2.93559 4.79285C3.06684 4.7402 3.18605 4.66303 3.28637 4.56578L6.16592 1.78393C6.36878 1.58796 6.48275 1.32215 6.48275 1.045C6.48275 0.767851 6.36878 0.50205 6.16592 0.306074C5.96306 0.110098 5.68793 2.92027e-09 5.40104 0C5.11415 -2.92027e-09 4.83902 0.110098 4.63616 0.306074L4.63796 0.308682ZM4.63796 5.87238L2.52238 7.91443L1.84659 7.2607C1.64373 7.06472 1.36859 6.95462 1.08171 6.95462C0.79482 6.95462 0.519684 7.06472 0.316824 7.2607C0.113965 7.45667 0 7.72247 0 7.99962C0 8.27678 0.113965 8.54258 0.316824 8.73855L1.7566 10.1295C1.85692 10.2267 1.97613 10.3039 2.10738 10.3565C2.23864 10.4092 2.37936 10.4363 2.52148 10.4363C2.66361 10.4363 2.80433 10.4092 2.93559 10.3565C3.06684 10.3039 3.18605 10.2267 3.28637 10.1295L6.16592 7.34763C6.36878 7.15165 6.48275 6.88585 6.48275 6.6087C6.48275 6.33155 6.36878 6.06575 6.16592 5.86977C5.96306 5.6738 5.68793 5.5637 5.40104 5.5637C5.11415 5.5637 4.83902 5.6738 4.63616 5.86977L4.63796 5.87238ZM4.63796 11.4361L2.52238 13.4781L1.84659 12.8244C1.74614 12.7274 1.6269 12.6504 1.49566 12.5979C1.36442 12.5453 1.22376 12.5183 1.08171 12.5183C0.939655 12.5183 0.798994 12.5453 0.667755 12.5979C0.536517 12.6504 0.41727 12.7274 0.316824 12.8244C0.216379 12.9214 0.136701 13.0366 0.08234 13.1634C0.0279791 13.2902 -2.11674e-09 13.4261 0 13.5633C2.11674e-09 13.7006 0.0279791 13.8364 0.08234 13.9632C0.136701 14.09 0.216379 14.2052 0.316824 14.3022L1.7566 15.6932C1.85692 15.7904 1.97613 15.8676 2.10738 15.9202C2.23864 15.9729 2.37936 16 2.52148 16C2.66361 16 2.80433 15.9729 2.93559 15.9202C3.06684 15.8676 3.18605 15.7904 3.28637 15.6932L6.16592 12.9113C6.36878 12.7154 6.48275 12.4495 6.48275 12.1724C6.48275 11.8952 6.36878 11.6294 6.16592 11.4335C5.96306 11.2375 5.68793 11.1274 5.40104 11.1274C5.11415 11.1274 4.83902 11.2375 4.63616 11.4335L4.63796 11.4361Z" fill="white"/>
</svg>
