<svg width="13" height="14" viewBox="0 0 13 14" fill="none" xmlns="http://www.w3.org/2000/svg">
<path id="Vector" d="M9.27636 7.6059C10.344 8.10653 11.2543 8.88576 11.9099 9.86017C12.5655 10.8346 12.9416 11.9675 12.9981 13.1377C13.0055 13.2449 12.9913 13.3525 12.9563 13.4542C12.9212 13.5559 12.8661 13.6496 12.794 13.7298C12.722 13.81 12.6345 13.8752 12.5367 13.9215C12.4389 13.9677 12.3328 13.9941 12.2247 13.9991C12.1165 14.0041 12.0083 13.9877 11.9066 13.9507C11.8049 13.9137 11.7117 13.8569 11.6325 13.7837C11.5532 13.7104 11.4895 13.6222 11.445 13.5242C11.4006 13.4262 11.3763 13.3204 11.3736 13.213C11.3145 11.9699 10.7751 10.7972 9.86747 9.93823C8.95981 9.07925 7.75357 8.60003 6.49916 8.60003C5.24475 8.60003 4.03852 9.07925 3.13086 9.93823C2.22319 10.7972 1.68382 11.9699 1.6247 13.213C1.6101 13.4234 1.51302 13.6198 1.35427 13.7601C1.19552 13.9003 0.987713 13.9734 0.77535 13.9635C0.562986 13.9537 0.36295 13.8618 0.218077 13.7074C0.0732042 13.553 -0.00498732 13.3485 0.000246811 13.1377C0.0564857 11.9676 0.432421 10.8347 1.08781 9.86028C1.7432 8.88585 2.65337 8.10659 3.72088 7.6059C3.03663 7.03969 2.54479 6.27812 2.31228 5.42478C2.07977 4.57144 2.11786 3.66777 2.42139 2.83667C2.72491 2.00557 3.27913 1.2874 4.00865 0.779848C4.73817 0.272296 5.60758 0 6.49862 0C7.38966 0 8.25907 0.272296 8.98859 0.779848C9.71811 1.2874 10.2723 2.00557 10.5759 2.83667C10.8794 3.66777 10.9175 4.57144 10.685 5.42478C10.4524 6.27812 9.96061 7.03969 9.27636 7.6059ZM9.21021 4.29995C9.21021 3.58664 8.92458 2.90255 8.41616 2.39817C7.90774 1.89379 7.21818 1.61043 6.49916 1.61043C5.78015 1.61043 5.09058 1.89379 4.58216 2.39817C4.07374 2.90255 3.78812 3.58664 3.78812 4.29995C3.78812 5.01325 4.07374 5.69734 4.58216 6.20172C5.09058 6.7061 5.78015 6.98946 6.49916 6.98946C7.21818 6.98946 7.90774 6.7061 8.41616 6.20172C8.92458 5.69734 9.21021 5.01325 9.21021 4.29995Z" fill="white"/>
</svg>
