<svg width="18" height="18" viewBox="0 0 18 18" fill="none" xmlns="http://www.w3.org/2000/svg">
<path id="Vector" d="M6 1.71429C6.59334 1.71429 7.17336 1.89233 7.66671 2.2259C8.16006 2.55946 8.54458 3.03358 8.77164 3.58828C8.9987 4.14299 9.05811 4.75337 8.94236 5.34224C8.8266 5.93111 8.54088 6.47202 8.12132 6.89657C7.70176 7.32113 7.16721 7.61025 6.58527 7.72738C6.00333 7.84452 5.40013 7.7844 4.85195 7.55463C4.30377 7.32487 3.83524 6.93577 3.50559 6.43655C3.17595 5.93733 3 5.35041 3 4.75C3 3.94488 3.31607 3.17273 3.87868 2.60343C4.44129 2.03412 5.20435 1.71429 6 1.71429ZM6 0.5C5.16932 0.5 4.35729 0.749258 3.66661 1.21625C2.97592 1.68325 2.43759 2.34701 2.11971 3.1236C1.80182 3.90018 1.71864 4.75471 1.8807 5.57913C2.04276 6.40355 2.44277 7.16083 3.03015 7.7552C3.61753 8.34958 4.3659 8.75435 5.18062 8.91834C5.99534 9.08232 6.83982 8.99816 7.60727 8.67649C8.37472 8.35482 9.03067 7.81008 9.49217 7.11117C9.95368 6.41226 10.2 5.59057 10.2 4.75C10.2 3.62283 9.7575 2.54183 8.96985 1.7448C8.1822 0.947767 7.11391 0.5 6 0.5ZM12 17.5H10.8V14.4643C10.8 13.6592 10.4839 12.887 9.92132 12.3177C9.35871 11.7484 8.59565 11.4286 7.8 11.4286H4.2C3.40435 11.4286 2.64129 11.7484 2.07868 12.3177C1.51607 12.887 1.2 13.6592 1.2 14.4643V17.5H0V14.4643C0 13.3371 0.442499 12.2561 1.23015 11.4591C2.0178 10.6621 3.08609 10.2143 4.2 10.2143H7.8C8.91391 10.2143 9.9822 10.6621 10.7698 11.4591C11.5575 12.2561 12 13.3371 12 14.4643V17.5ZM12 1.71429H18V2.92857H12V1.71429ZM12 4.75H18V5.96429H12V4.75ZM12 7.78571H16.2V9H12V7.78571Z" fill="white"/>
</svg>
