<svg width="24" height="24" viewBox="0 0 24 24" fill="none" xmlns="http://www.w3.org/2000/svg">
<g id="gridicons:line-graph">
<path id="Vector" d="M3 19H21V21H3V19ZM6 16C7.1 16 8 15.1 8 14C8 13.5 7.8 13 7.5 12.7L8.8 10H9C9.5 10 10 9.8 10.3 9.5L13 10.9V11C13 12.1 13.9 13 15 13C16.1 13 17 12.1 17 11C17 10.5 16.8 10.1 16.5 9.7L17.8 7H18C19.1 7 20 6.1 20 5C20 3.9 19.1 3 18 3C16.9 3 16 3.9 16 5C16 5.5 16.2 6 16.5 6.3L15.2 9H15C14.5 9 14 9.2 13.7 9.5L11 8.2V8C11 6.9 10.1 6 9 6C7.9 6 7 6.9 7 8C7 8.5 7.2 9 7.5 9.3L6.2 12H6C4.9 12 4 12.9 4 14C4 15.1 4.9 16 6 16Z" fill="white"/>
</g>
</svg>
