<svg width="25" height="24" viewBox="0 0 25 24" fill="none" xmlns="http://www.w3.org/2000/svg">
<g id="trash-2 2">
<path id="Vector" d="M3.07422 6H5.07422H21.0742" stroke="#424242" stroke-width="2" stroke-linecap="round" stroke-linejoin="round"/>
<path id="Vector_2" d="M8.07422 6V4C8.07422 3.46957 8.28493 2.96086 8.66001 2.58579C9.03508 2.21071 9.54379 2 10.0742 2H14.0742C14.6047 2 15.1134 2.21071 15.4884 2.58579C15.8635 2.96086 16.0742 3.46957 16.0742 4V6M19.0742 6V20C19.0742 20.5304 18.8635 21.0391 18.4884 21.4142C18.1134 21.7893 17.6047 22 17.0742 22H7.07422C6.54379 22 6.03508 21.7893 5.66001 21.4142C5.28493 21.0391 5.07422 20.5304 5.07422 20V6H19.0742Z" stroke="#424242" stroke-width="2" stroke-linecap="round" stroke-linejoin="round"/>
<path id="Vector_3" d="M10.0742 11V17" stroke="#424242" stroke-width="2" stroke-linecap="round" stroke-linejoin="round"/>
<path id="Vector_4" d="M14.0742 11V17" stroke="#424242" stroke-width="2" stroke-linecap="round" stroke-linejoin="round"/>
</g>
</svg>
