<svg width="40" height="41" viewBox="0 0 40 41" fill="none" xmlns="http://www.w3.org/2000/svg">
<g id="gallery-add">
<path id="Vector (Stroke)" fill-rule="evenodd" clip-rule="evenodd" d="M10.9717 8.66978C11.7837 8.1172 12.7383 7.82227 13.7148 7.82227C14.3418 7.82227 14.85 8.33993 14.85 8.9785C14.85 9.61708 14.3418 10.1347 13.7148 10.1347C13.1873 10.1347 12.6717 10.2941 12.2331 10.5925C11.7945 10.891 11.4527 11.3153 11.2508 11.8116C11.049 12.308 10.9961 12.8541 11.099 13.3811C11.202 13.908 11.456 14.392 11.8289 14.7719C12.2019 15.1518 12.6772 15.4105 13.1945 15.5153C13.7119 15.6201 14.2481 15.5663 14.7354 15.3607C15.2228 15.1551 15.6393 14.807 15.9324 14.3603C16.2254 13.9136 16.3818 13.3884 16.3818 12.8511C16.3818 12.2126 16.8901 11.6949 17.5171 11.6949C18.144 11.6949 18.6523 12.2126 18.6523 12.8511C18.6523 13.8457 18.3627 14.818 17.8202 15.645C17.2776 16.472 16.5065 17.1166 15.6043 17.4972C14.7021 17.8778 13.7093 17.9774 12.7516 17.7834C11.7938 17.5893 10.914 17.1104 10.2235 16.4071C9.53298 15.7038 9.06273 14.8077 8.87222 13.8322C8.6817 12.8567 8.77948 11.8456 9.15319 10.9267C9.52689 10.0078 10.1597 9.22236 10.9717 8.66978Z" fill="#8A8A8A"/>
<path id="Vector (Stroke)_2" fill-rule="evenodd" clip-rule="evenodd" d="M38.3809 14.5273C38.9989 14.5273 39.4998 15.0482 39.4998 15.6907V25.4315C39.4998 30.4145 38.5535 34.2053 36.1466 36.7218C33.7382 39.2399 30.1084 40.2304 25.3391 40.2304H14.1607C9.39287 40.2304 5.76322 39.2403 3.35445 36.7225C0.947147 34.2063 0 30.4155 0 25.4315V21.515C0 20.8725 0.500944 20.3517 1.11889 20.3517C1.73684 20.3517 2.23778 20.8725 2.23778 21.515V25.4315C2.23778 30.1883 3.15545 33.2154 4.941 35.0817C6.72508 36.9465 9.61633 37.9038 14.1607 37.9038H25.3391C29.885 37.9038 32.7761 36.9462 34.5598 35.0812C36.345 33.2147 37.262 30.1877 37.262 25.4315V15.6907C37.262 15.0482 37.763 14.5273 38.3809 14.5273Z" fill="#8A8A8A"/>
<path id="Vector (Stroke)_3" fill-rule="evenodd" clip-rule="evenodd" d="M3.40101 3.4367C5.84182 0.970273 9.51978 0 14.3545 0H21.9132C22.5364 0 23.0416 0.510494 23.0416 1.14022C23.0416 1.76995 22.5364 2.28044 21.9132 2.28044H14.3545C9.74245 2.28044 6.80734 3.21966 4.99678 5.04921C3.18623 6.87876 2.25676 9.84467 2.25676 14.5051C2.25676 15.1349 1.75157 15.6454 1.12838 15.6454C0.505194 15.6454 0 15.1349 0 14.5051C0 9.61967 0.960198 5.90312 3.40101 3.4367Z" fill="#8A8A8A"/>
<path id="Vector (Stroke)_4" fill-rule="evenodd" clip-rule="evenodd" d="M25.2363 6.70542C25.2363 6.08822 25.7622 5.58789 26.4108 5.58789H37.2285C37.8771 5.58789 38.4029 6.08822 38.4029 6.70542C38.4029 7.32261 37.8771 7.82294 37.2285 7.82294H26.4108C25.7622 7.82294 25.2363 7.32261 25.2363 6.70542Z" fill="#8A8A8A"/>
<path id="Vector (Stroke)_5" fill-rule="evenodd" clip-rule="evenodd" d="M31.8199 0C32.4258 0 32.9171 0.535561 32.9171 1.19621V12.2141C32.9171 12.8747 32.4258 13.4103 31.8199 13.4103C31.2139 13.4103 30.7227 12.8747 30.7227 12.2141V1.19621C30.7227 0.535561 31.2139 0 31.8199 0Z" fill="#8A8A8A"/>
<path id="Vector (Stroke)_6" fill-rule="evenodd" clip-rule="evenodd" d="M30.777 21.9874L23.0116 28.8338L22.991 28.8516C22.0469 29.6444 20.8624 30.0778 19.6399 30.0778C18.4173 30.0778 17.2328 29.6444 16.2887 28.8516C16.2786 28.843 16.2685 28.8343 16.2586 28.8254L15.6592 28.2848C15.1572 27.8723 14.5407 27.6313 13.8968 27.5963C13.2489 27.561 12.6068 27.7361 12.0625 28.0962L2.85014 34.4468C2.33592 34.8013 1.63753 34.6632 1.29023 34.1384C0.942935 33.6135 1.07825 32.9007 1.59247 32.5462L10.8279 26.1797C11.773 25.5505 12.8897 25.2446 14.0164 25.306C15.1432 25.3673 16.2216 25.7928 17.0957 26.521C17.1071 26.5304 17.1183 26.5401 17.1292 26.55L17.7305 27.0922C18.27 27.5397 18.9442 27.7842 19.6399 27.7842C20.3374 27.7842 21.0134 27.5384 21.5537 27.0885L29.3191 20.242L29.3397 20.2242C30.2838 19.4315 31.4683 18.998 32.6909 18.998C33.9134 18.998 35.0979 19.4315 36.042 20.2242L36.0626 20.242L39.1112 22.9301C39.5807 23.3441 39.6326 24.0683 39.2269 24.5475C38.8213 25.0268 38.1118 25.0797 37.6422 24.6657L34.6047 21.9873C34.0644 21.5374 33.3884 21.2916 32.6909 21.2916C31.9933 21.2916 31.3173 21.5375 30.777 21.9874Z" fill="#8A8A8A"/>
</g>
</svg>
